# This file uses centimeters as units for non-parametric coordinates.

mtllib WrenchObj.mtl
g default
v -2.963326 -0.184961 0.500000
v 2.963326 -0.184961 0.500000
v -2.963326 0.184961 0.250000
v 3.250000 0.184961 0.250000
v -2.963326 0.184961 -0.250000
v 3.250000 0.184961 -0.250000
v -2.963326 -0.184961 -0.500000
v 2.963326 -0.184961 -0.500000
v 4.223914 -0.184961 -0.562500
v 4.223914 -0.184961 0.562500
v 4.223914 0.184961 -0.562500
v 4.223914 0.184961 0.562500
v 3.250000 0.184961 -0.974890
v 2.963326 -0.184961 -1.250000
v 4.223914 0.184961 -1.525110
v 4.223914 -0.184961 -1.800220
v 2.963326 -0.184961 1.250000
v 3.250000 0.184961 0.974890
v 4.223914 -0.184961 1.800220
v 4.223914 0.184961 1.525110
v 6.033922 0.184961 -0.875000
v 6.033922 -0.184961 -0.875000
v 6.033922 -0.184961 -1.500000
v 6.033922 0.184961 -1.375000
v 6.033922 -0.184961 0.875000
v 6.033922 0.184961 0.875000
v 6.033922 0.184961 1.349890
v 6.033922 -0.184961 1.500000
v 0.987775 0.184961 -0.250000
v 0.987775 -0.184961 -0.500000
v 0.987775 -0.184961 0.500000
v 0.987775 0.184961 0.250000
v -0.987775 0.184961 -0.250000
v -0.987775 -0.184961 -0.500000
v -0.987775 -0.184961 0.500000
v -0.987775 0.184961 0.250000
v 5.128918 0.184961 -1.625000
v 5.128918 -0.184961 -1.750000
v 5.128918 -0.184961 -0.937500
v 5.128918 0.184961 -0.937500
v 5.128918 0.184961 1.650110
v 5.128918 0.184961 0.937500
v 5.128918 -0.184961 0.937500
v 5.128918 -0.184961 1.800220
vt 0.285948 0.150389
vt 0.285948 0.000000
vt 0.335399 0.000000
vt 0.335399 0.150389
vt 0.645046 0.133679
vt 0.645046 0.000000
vt 0.694497 0.033420
vt 0.694497 0.100259
vt 0.744372 0.083549
vt 0.694921 0.083549
vt 0.694921 0.000000
vt 0.744372 0.016710
vt 0.744796 0.000000
vt 0.794246 0.000000
vt 0.794246 0.063483
vt 0.744796 0.083549
vt 0.501615 0.722162
vt 0.039443 0.758141
vt 0.580502 0.410474
vt 0.580502 0.722162
vt 0.462172 0.722162
vt 0.000000 0.758141
vt 0.039443 0.446453
vt 0.118329 0.446453
vt 0.157773 0.758141
vt 0.619945 0.722162
vt 0.000000 0.446453
vt 0.225396 0.404772
vt 0.298094 0.404772
vt 0.334443 0.733691
vt 0.189047 0.446453
vt 0.179960 0.263168
vt 0.343531 0.263168
vt 0.334443 0.446453
vt 0.080000 0.446453
vt 0.120000 0.404772
vt 0.040000 0.263168
vt 0.483490 0.263168
vt 0.403491 0.404772
vt 0.443491 0.446453
vt 0.000000 0.263168
vt 0.021826 0.131584
vt 0.125436 0.131584
vt 0.398054 0.131584
vt 0.498014 0.131584
vt 0.523491 0.263168
vt 0.065476 0.000000
vt 0.134523 0.000000
vt 0.388967 0.000000
vt 0.461665 0.000000
vt 0.827920 0.674564
vt 0.621771 0.938653
vt 0.755450 0.938653
vt 0.961599 0.674564
vt 0.621771 0.674564
vt 0.826188 0.674564
vt 0.692509 0.410474
vt 0.826188 0.410474
vt 0.684154 0.241960
vt 0.834543 0.241960
vt 0.592250 0.410474
vt 0.518697 0.241960
vt 1.000000 0.241960
vt 0.926447 0.410474
vt 0.525410 0.120980
vt 0.634025 0.120980
vt 0.884673 0.120980
vt 1.000000 0.120980
vt 0.558830 0.000000
vt 0.642379 0.000000
vt 0.876318 0.000000
vt 0.959867 0.000000
vt 0.386312 0.693491
vt 0.335823 0.693491
vt 0.335823 0.569972
vt 0.386312 0.569972
vt 0.335823 0.446453
vt 0.386312 0.446453
vt 0.285142 0.256361
vt 0.232749 0.256361
vt 0.232749 0.128181
vt 0.285142 0.128181
vt 0.232749 0.000000
vt 0.285142 0.000000
vt 0.672260 0.657513
vt 0.621771 0.657513
vt 0.621771 0.533994
vt 0.672260 0.533994
vt 0.621771 0.410474
vt 0.672260 0.410474
vt 0.232528 0.259223
vt 0.179549 0.259223
vt 0.179549 0.129611
vt 0.232528 0.129611
vt 0.179549 0.000000
vt 0.232528 0.000000
vt 0.827920 0.410474
vt 0.961599 0.410474
vt 0.692509 0.674564
vt 0.755450 0.674564
vt 0.462172 0.410474
vt 0.189047 0.733691
vt 0.619945 0.410474
vt 0.157773 0.446453
vt 0.501615 0.410474
vt 0.118329 0.758141
vt 0.225396 0.733691
vt 0.298094 0.733691
vn 0.000000 0.559939 0.828534
vn 0.000000 0.559939 0.828534
vn 0.000000 0.559939 0.828534
vn 0.000000 0.559939 0.828534
vn 0.000000 1.000000 0.000000
vn 0.000000 1.000000 0.000000
vn 0.000000 1.000000 0.000000
vn 0.000000 1.000000 0.000000
vn 0.000000 0.559939 -0.828534
vn 0.000000 0.559939 -0.828534
vn 0.000000 0.559939 -0.828534
vn 0.000000 0.559939 -0.828534
vn 0.000000 -1.000000 0.000000
vn 0.000000 -1.000000 0.000000
vn 0.000000 -1.000000 0.000000
vn 0.000000 -1.000000 0.000000
vn 1.000000 0.000000 0.000000
vn 1.000000 0.000000 0.000000
vn 1.000000 0.000000 0.000000
vn 1.000000 0.000000 0.000000
vn -1.000000 0.000000 0.000000
vn -1.000000 0.000000 0.000000
vn -1.000000 0.000000 0.000000
vn -1.000000 0.000000 0.000000
vn -0.000000 -1.000000 -0.000000
vn -0.000000 -1.000000 -0.000000
vn 0.000000 -1.000000 -0.000000
vn 0.000000 -1.000000 0.000000
vn -0.338564 0.642459 -0.687474
vn -0.338565 0.642459 -0.687474
vn -0.236720 0.597104 -0.766440
vn -0.209872 0.583669 -0.784401
vn -0.000000 1.000000 -0.000000
vn -0.000000 1.000000 -0.000000
vn -0.000000 1.000000 0.000000
vn 0.000000 1.000000 -0.000000
vn -0.338564 0.642459 0.687474
vn -0.338564 0.642459 0.687474
vn -0.221745 0.589329 0.776866
vn -0.247717 0.602162 0.758971
vn -0.790431 0.612551 0.000000
vn -0.790431 0.612551 0.000000
vn -0.790431 0.612551 0.000000
vn -0.790431 0.612551 0.000000
vn 0.000000 1.000000 0.000000
vn 0.000000 1.000000 0.000000
vn 1.000000 0.000000 0.000000
vn 1.000000 0.000000 0.000000
vn 1.000000 0.000000 0.000000
vn 1.000000 0.000000 0.000000
vn 0.000000 -1.000000 0.000000
vn 0.000000 -1.000000 0.000000
vn -0.790431 0.612551 0.000000
vn -0.790431 0.612551 0.000000
vn -0.790431 0.612551 0.000000
vn -0.790431 0.612551 0.000000
vn 0.000000 -1.000000 0.000000
vn -0.000000 -1.000000 0.000000
vn 1.000000 0.000001 0.000000
vn 1.000000 0.000001 0.000000
vn 1.000000 0.000001 0.000000
vn 1.000000 0.000001 0.000000
vn -0.000000 1.000000 0.000000
vn 0.000000 1.000000 0.000000
vn 0.382801 0.000000 0.923831
vn 0.382801 0.000000 0.923831
vn 0.170134 0.000000 0.985421
vn 0.170134 0.000000 0.985421
vn 0.000000 -1.000000 0.000000
vn 0.000000 -1.000000 0.000000
vn 0.115324 0.398370 -0.909946
vn 0.108450 0.402463 -0.908990
vn 0.000000 1.000000 0.000000
vn 0.000000 1.000000 0.000000
vn 0.382801 0.000000 -0.923831
vn 0.382801 0.000000 -0.923831
vn 0.170134 0.000000 -0.985421
vn 0.170134 0.000000 -0.985421
vn 0.000000 1.000000 0.000000
vn 0.000000 1.000000 0.000000
vn 0.110045 0.439915 0.891271
vn 0.120769 0.435752 0.891928
vn 0.000000 -1.000000 0.000000
vn 0.000000 -1.000000 0.000000
vn 0.000000 0.559939 -0.828534
vn 0.000000 0.559939 -0.828534
vn 0.000000 0.559939 -0.828534
vn 0.000000 0.559939 -0.828534
vn -0.000000 -1.000000 -0.000000
vn -0.000000 -1.000000 -0.000000
vn -0.000000 0.559939 0.828534
vn -0.000000 0.559939 0.828534
vn -0.000000 0.559939 0.828534
vn -0.000000 0.559939 0.828534
vn -0.000000 1.000000 -0.000000
vn -0.000000 1.000000 -0.000000
vn 0.253178 0.309697 -0.916509
vn 0.253178 0.309697 -0.916509
vn 0.000000 -1.000000 0.000000
vn 0.000000 -1.000000 0.000000
vn -0.068896 0.000000 0.997624
vn -0.068896 0.000000 0.997624
vn 0.000000 1.000000 0.000000
vn 0.000000 1.000000 0.000000
vn 0.000000 1.000000 0.000000
vn 0.000000 1.000000 0.000000
vn -0.068896 0.000000 -0.997624
vn -0.068896 0.000000 -0.997624
vn 0.000000 -1.000000 0.000000
vn 0.000000 -1.000000 0.000000
vn 0.293821 0.359413 0.885715
vn 0.293821 0.359413 0.885715
s 1
g pCube1
usemtl lambert3SG
f 1/21/1 35/101/2 36/105/3 3/17/4
s 2
f 3/17/5 36/105/6 33/19/7 5/20/8
s 3
f 5/20/9 33/19/10 34/103/11 7/26/12
s 4
f 7/51/13 34/97/14 35/98/15 1/54/16
s off
f 10/1/17 9/2/18 11/3/19 12/4/20
f 7/5/21 1/6/22 3/7/23 5/8/24
s 4
f 2/58/25 8/57/26 9/59/27 10/60/28
s 6
f 14/40/29 13/39/30 15/38/31 16/46/32
s 2
f 6/29/33 4/28/34 12/32/35 11/33/36
s 8
f 18/36/37 17/35/38 19/41/39 20/37/40
s off
f 8/34/41 6/29/42 13/39/43 14/40/44
s 2
f 6/29/33 11/33/36 15/38/45 13/39/46
s off
f 21/9/47 22/10/48 23/11/49 24/12/50
s 4
f 9/59/27 8/57/26 14/61/51 16/62/52
s off
f 4/28/53 2/31/54 17/35/55 18/36/56
s 4
f 2/58/25 10/60/28 19/63/57 17/64/58
s off
f 25/13/59 26/14/60 27/15/61 28/16/62
s 2
f 12/32/35 4/28/34 18/36/63 20/37/64
s 9
f 11/73/65 9/74/66 39/75/67 40/76/68
s 4
f 9/59/27 16/62/52 38/65/69 39/66/70
s 6
f 16/79/32 15/80/31 37/81/71 38/82/72
s 2
f 15/38/45 11/33/36 40/44/73 37/45/74
s 10
f 10/85/75 12/86/76 42/87/77 43/88/78
s 2
f 12/32/35 20/37/64 41/42/79 42/43/80
s 8
f 20/91/40 19/92/39 44/93/81 41/94/82
s 4
f 19/63/57 10/60/28 43/67/83 44/68/84
s 3
f 29/108/85 6/29/86 8/34/87 30/30/88
s 4
f 31/56/89 30/99/90 8/57/26 2/58/25
s 1
f 32/107/91 31/102/92 2/31/93 4/28/94
s 2
f 29/108/95 32/107/96 4/28/34 6/29/33
s 3
f 33/106/10 29/24/85 30/104/88 34/25/11
s 4
f 35/53/15 34/52/14 30/55/90 31/100/89
s 1
f 36/18/3 35/22/2 31/27/92 32/23/91
s 2
f 33/106/7 36/18/6 32/23/96 29/24/95
s 6
f 38/82/72 37/81/71 24/83/97 23/84/98
s 4
f 39/66/70 38/65/69 23/69/99 22/70/100
s 9
f 40/76/68 39/75/67 22/77/101 21/78/102
s 2
f 37/45/74 40/44/73 21/49/103 24/50/104
f 42/43/80 41/42/79 27/47/105 26/48/106
s 10
f 43/88/78 42/87/77 26/89/107 25/90/108
s 4
f 44/68/84 43/67/83 25/71/109 28/72/110
s 8
f 41/94/82 44/93/81 28/95/111 27/96/112
